<svg id="kity_svg_6" xmlns="http://www.w3.org/2000/svg" xmlns:xlink="http://www.w3.org/1999/xlink" version="1.1" width="991" height="667" style="background: rgb(251, 251, 251) none repeat scroll 0% 0%; visibility: visible;" viewBox="0 0 991 667"><defs id="kity_defs_7"><linearGradient id="kity_linearGradient_17" x1="0" y1="0" x2="0" y2="1"><stop id="kity_stop_18" offset="0" stop-color="rgb(255, 255, 255)"></stop><stop id="kity_stop_19" offset="1" stop-color="rgb(204, 204, 204)"></stop></linearGradient><marker id="kity_marker_2" orient="auto" refX="6" refY="0" viewBox="-7 -7 14 14" markerWidth="7" markerHeight="7" markerUnits="userSpaceOnUse"><path id="kity_path_3" fill="rgb(191, 115, 148)" stroke="none" d="M6,0A6,6,0,1,1,-6,0A6,6,0,1,1,6,0"></path></marker></defs><g id="kity_g_8"><g id="minder1" text-rendering="optimize-speed"><g id="minder_connect_group1"><path id="kity_path_31" fill="none" stroke="rgb(191, 115, 148)" stroke-width="1" d="M499.5,319.5A68,173,0,0,1,567.5,146.5"></path><path id="kity_path_47" fill="none" stroke="rgb(191, 115, 148)" stroke-width="1" d="M338.5,401.5C335.5,401.5,335.5,374.5,332.5,374.5L280.5,374.5"></path><path id="kity_path_55" fill="none" stroke="rgb(191, 115, 148)" stroke-width="1" d="M314.5,237.5C311.5,237.5,311.5,288.5,308.5,288.5L251.5,288.5"></path><path id="kity_path_63" fill="none" stroke="rgb(191, 115, 148)" stroke-width="1" d="M499.5,319.5A68,173,0,0,0,567.5,492.5"></path><path id="kity_path_71" fill="none" stroke="rgb(191, 115, 148)" stroke-width="1" d="M676.5,146.5C679.5,146.5,679.5,67.5,682.5,67.5L774.5,67.5"></path><path id="kity_path_79" fill="none" stroke="rgb(191, 115, 148)" stroke-width="1" d="M774.5,67.5C777.5,67.5,777.5,41.5,780.5,41.5L863.5,41.5"></path><path id="kity_path_87" fill="none" stroke="rgb(191, 115, 148)" stroke-width="1" d="M676.5,146.5C680,146.5,680,119.5,683.5,119.5L741.5,119.5"></path><path id="kity_path_95" fill="none" stroke="rgb(191, 115, 148)" stroke-width="1" d="M810.5,387.5C813.5,387.5,813.5,283.5,816.5,283.5L883.5,283.5"></path><path id="kity_path_103" fill="none" stroke="rgb(191, 115, 148)" stroke-width="1" d="M774.5,67.5C777.5,67.5,777.5,67.5,780.5,67.5L905.5,67.5"></path><path id="kity_path_119" fill="none" stroke="rgb(191, 115, 148)" stroke-width="1" d="M810.5,387.5C813.5,387.5,813.5,309.5,816.5,309.5L918.5,309.5"></path><path id="kity_path_127" fill="none" stroke="rgb(191, 115, 148)" stroke-width="1" d="M809.5,621.5C812.5,621.5,812.5,595.5,815.5,595.5L872.5,595.5"></path><path id="kity_path_135" fill="none" stroke="rgb(191, 115, 148)" stroke-width="1" d="M684.5,492.5C687.5,492.5,687.5,387.5,690.5,387.5L810.5,387.5"></path><path id="kity_path_159" fill="none" stroke="rgb(191, 115, 148)" stroke-width="1" d="M810.5,387.5C813.5,387.5,813.5,387.5,816.5,387.5L899.5,387.5"></path><path id="kity_path_167" fill="none" stroke="rgb(191, 115, 148)" stroke-width="1" d="M810.5,387.5C813.5,387.5,813.5,413.5,816.5,413.5L904.5,413.5"></path><path id="kity_path_175" fill="none" stroke="rgb(191, 115, 148)" stroke-width="1" d="M810.5,387.5C813.5,387.5,813.5,439.5,816.5,439.5L926.5,439.5"></path><path id="kity_path_183" fill="none" stroke="rgb(191, 115, 148)" stroke-width="1" d="M810.5,387.5C813.5,387.5,813.5,465.5,816.5,465.5L971.5,465.5"></path><path id="kity_path_231" fill="none" stroke="rgb(191, 115, 148)" stroke-width="1" d="M314.5,237.5C311.5,237.5,311.5,158.5,308.5,158.5L228.5,158.5"></path><path id="kity_path_307" fill="none" stroke="rgb(191, 115, 148)" stroke-width="1" d="M499.5,319.5A68,82,0,0,0,431.5,237.5"></path><path id="kity_path_314" fill="none" stroke="rgb(191, 115, 148)" stroke-width="1" d="M228.5,158.5C225.5,158.5,225.5,80.5,222.5,80.5L146.5,80.5"></path><path id="kity_path_315" fill="none" stroke="rgb(191, 115, 148)" stroke-width="1" d="M228.5,158.5C225.5,158.5,225.5,106.5,222.5,106.5L127.5,106.5"></path><path id="kity_path_316" fill="none" stroke="rgb(191, 115, 148)" stroke-width="1" d="M228.5,158.5C225.5,158.5,225.5,132.5,222.5,132.5L145.5,132.5"></path><path id="kity_path_317" fill="none" stroke="rgb(191, 115, 148)" stroke-width="1" d="M228.5,158.5C225.5,158.5,225.5,158.5,222.5,158.5L105.5,158.5"></path><path id="kity_path_318" fill="none" stroke="rgb(191, 115, 148)" stroke-width="1" d="M228.5,158.5C225.5,158.5,225.5,184.5,222.5,184.5L145.5,184.5"></path><path id="kity_path_321" fill="none" stroke="rgb(191, 115, 148)" stroke-width="1" d="M251.5,288.5C248.5,288.5,248.5,262.5,245.5,262.5L20.5,262.5"></path><path id="kity_path_322" fill="none" stroke="rgb(191, 115, 148)" stroke-width="1" d="M251.5,288.5C248.5,288.5,248.5,288.5,245.5,288.5L160.5,288.5"></path><path id="kity_path_330" fill="none" stroke="rgb(191, 115, 148)" stroke-width="1" d="M684.5,492.5C687.5,492.5,687.5,543.5,690.5,543.5L809.5,543.5"></path><path id="kity_path_334" fill="none" stroke="rgb(191, 115, 148)" stroke-width="1" d="M809.5,543.5C812.5,543.5,812.5,517.5,815.5,517.5L911.5,517.5"></path><path id="kity_path_335" fill="none" stroke="rgb(191, 115, 148)" stroke-width="1" d="M809.5,543.5C812.5,543.5,812.5,543.5,815.5,543.5L959.5,543.5"></path><path id="kity_path_336" fill="none" stroke="rgb(191, 115, 148)" stroke-width="1" d="M809.5,543.5C812.5,543.5,812.5,569.5,815.5,569.5L911.5,569.5"></path><path id="kity_path_345" fill="none" stroke="rgb(191, 115, 148)" stroke-width="1" d="M499.5,319.5A68,82,0,0,1,431.5,401.5"></path><path id="kity_path_347" fill="none" stroke="rgb(191, 115, 148)" stroke-width="1" d="M338.5,401.5C335.5,401.5,335.5,400.5,332.5,400.5L285.5,400.5"></path><path id="kity_path_355" fill="none" stroke="rgb(191, 115, 148)" stroke-width="1" d="M338.5,401.5C335.5,401.5,335.5,426.5,332.5,426.5L254.5,426.5"></path><path id="kity_path_363" fill="none" stroke="rgb(191, 115, 148)" stroke-width="1" d="M810.5,387.5C813.5,387.5,813.5,335.5,816.5,335.5L910.5,335.5"></path><path id="kity_path_371" fill="none" stroke="rgb(191, 115, 148)" stroke-width="1" d="M314.5,237.5C311.5,237.5,311.5,340.5,308.5,340.5L222.5,340.5"></path><path id="kity_path_379" fill="none" stroke="rgb(191, 115, 148)" stroke-width="1" d="M684.5,492.5C687.5,492.5,687.5,621.5,690.5,621.5L809.5,621.5"></path><path id="kity_path_387" fill="none" stroke="rgb(191, 115, 148)" stroke-width="1" d="M251.5,288.5C248.5,288.5,248.5,314.5,245.5,314.5L91.5,314.5"></path><path id="kity_path_395" fill="none" stroke="rgb(191, 115, 148)" stroke-width="1" d="M774.5,67.5C777.5,67.5,777.5,93.5,780.5,93.5L827.5,93.5"></path><path id="kity_path_403" fill="none" stroke="rgb(191, 115, 148)" stroke-width="1" d="M810.5,387.5C813.5,387.5,813.5,361.5,816.5,361.5L911.5,361.5"></path><path id="kity_path_411" fill="none" stroke="rgb(191, 115, 148)" stroke-width="1" d="M338.5,401.5C335.5,401.5,335.5,452.5,332.5,452.5L268.5,452.5"></path><path id="kity_path_423" fill="none" stroke="rgb(191, 115, 148)" stroke-width="1" d="M676.5,146.5C679.5,146.5,679.5,145.5,682.5,145.5L747.5,145.5"></path><path id="kity_path_431" fill="none" stroke="rgb(191, 115, 148)" stroke-width="1" d="M228.5,158.5C225.5,158.5,225.5,210.5,222.5,210.5L166.5,210.5"></path><path id="kity_path_439" fill="none" stroke="rgb(191, 115, 148)" stroke-width="1" d="M810.5,387.5C813.5,387.5,813.5,491.5,816.5,491.5L910.5,491.5"></path><path id="kity_path_447" fill="none" stroke="rgb(191, 115, 148)" stroke-width="1" d="M228.5,158.5C225.5,158.5,225.5,236.5,222.5,236.5L139.5,236.5"></path><path id="kity_path_455" fill="none" stroke="rgb(191, 115, 148)" stroke-width="1" d="M809.5,621.5C812.5,621.5,812.5,621.5,815.5,621.5L926.5,621.5"></path><path id="kity_path_463" fill="none" stroke="rgb(191, 115, 148)" stroke-width="1" d="M809.5,621.5C812.5,621.5,812.5,647.5,815.5,647.5L882.5,647.5"></path><path id="kity_path_471" fill="none" stroke="rgb(191, 115, 148)" stroke-width="1" d="M676.5,146.5C679.5,146.5,679.5,171.5,682.5,171.5L775.5,171.5"></path><path id="kity_path_479" fill="none" stroke="rgb(191, 115, 148)" stroke-width="1" d="M676.5,146.5C679.5,146.5,679.5,197.5,682.5,197.5L776.5,197.5"></path><path id="kity_path_487" fill="none" stroke="rgb(191, 115, 148)" stroke-width="1" d="M676.5,146.5C679.5,146.5,679.5,223.5,682.5,223.5L769.5,223.5"></path><path id="kity_path_495" fill="none" stroke="rgb(191, 115, 148)" stroke-width="1" d="M676.5,146.5C679.5,146.5,679.5,249.5,682.5,249.5L770.5,249.5"></path></g><g id="minder_node1"><path id="kity_path_275" fill="rgba(0, 0, 0, .25)" stroke="none" d="M526,236h0a89,89,0,0,1,89,89v0a89,89,0,0,1,-89,89h0a89,89,0,0,1,-89,-89v0a89,89,0,0,1,89,-89z" display="none"></path><path id="node_outline1" fill="rgb(191, 115, 148)" stroke="rgb(191, 115, 148)" d="M452.5,305.5h94a5,5,0,0,1,5,5v18a5,5,0,0,1,-5,5h-94a5,5,0,0,1,-5,-5v-18a5,5,0,0,1,5,-5z" stroke-width="3"></path><g id="node_text1" fill="white"><text id="kity_text_22" text-rendering="inherit" font-size="16" dy=".8em" y="308.94000005722046" x="459.5">Projet Info</text></g></g><g id="kity_g_14" display="none"><path id="kity_path_15" fill="rgba(153, 0, 66, 0.5)" stroke="none" d="M825.5,607.5h101v4h-101z"></path><path id="kity_path_16" fill="none" stroke="rgb(128, 0, 55)" d="M825.5,607.5L926.5,607.5" stroke-width="1"></path></g><g id="minder_node2"><path id="kity_path_270" fill="rgba(0, 0, 0, .25)" stroke="none" d="M629,100h0a51,51,0,0,1,51,51v0a51,51,0,0,1,-51,51h0a51,51,0,0,1,-51,-51v0a51,51,0,0,1,51,-51z" display="none"></path><g id="node_expander1" style="cursor: pointer;"><path id="kity_path_36" fill="white" stroke="gray" d="M568.5,146.5A6,6,0,1,1,556.5,146.5A6,6,0,1,1,568.5,146.5"></path><path id="kity_path_37" fill="none" stroke="gray" d="M558,146.5L567,146.5"></path></g><path id="node_outline2" fill="rgb(246, 238, 242)" stroke="rgb(191, 115, 148)" d="M572.5,133.5h101a3,3,0,0,1,3,3v20a3,3,0,0,1,-3,3h-101a3,3,0,0,1,-3,-3v-20a3,3,0,0,1,3,-3z" stroke-width="1"></path><g id="node_text2" fill="black"><text id="kity_text_33" text-rendering="inherit" font-size="14" dy=".8em" y="137.25999999046326" x="589.5">technique</text></g></g><g id="minder_node4" opacity="1"><path id="kity_path_271" fill="rgba(0, 0, 0, .25)" stroke="none" d="M309.5,330h0a37,37,0,0,1,37,37v0a37,37,0,0,1,-37,37h0a37,37,0,0,1,-37,-37v0a37,37,0,0,1,37,-37z" display="none"></path><g id="node_expander3" style="cursor: pointer;" display="none"><path id="kity_path_52" fill="white" stroke="gray" d="M334.5,362.5A6,6,0,1,1,322.5,362.5A6,6,0,1,1,334.5,362.5"></path><path id="kity_path_53" fill="none" stroke="gray" d="M324,362.5L333,362.5"></path></g><path id="node_outline4" fill="none" stroke="none" d="M285.5,353.5h32a5,5,0,0,1,5,5v8a5,5,0,0,1,-5,5h-32a5,5,0,0,1,-5,-5v-8a5,5,0,0,1,5,-5z" stroke-width="3"></path><g id="node_text4" fill="black"><text id="kity_text_49" text-rendering="inherit" font-size="12" dy=".8em" y="354.58000004291534" x="285.5">social</text></g></g><g id="minder_node5" opacity="1"><path id="kity_path_272" fill="rgba(0, 0, 0, .25)" stroke="none" d="M283.5,241h0a40,40,0,0,1,40,40v0a40,40,0,0,1,-40,40h0a40,40,0,0,1,-40,-40v0a40,40,0,0,1,40,-40z" display="none"></path><g id="node_expander4" style="cursor: pointer;"><path id="kity_path_60" fill="white" stroke="gray" d="M310.5,276.5A6,6,0,1,1,298.5,276.5A6,6,0,1,1,310.5,276.5"></path><path id="kity_path_61" fill="none" stroke="gray" d="M300,276.5L309,276.5"></path></g><path id="node_outline5" fill="none" stroke="none" d="M256.5,267.5h37a5,5,0,0,1,5,5v8a5,5,0,0,1,-5,5h-37a5,5,0,0,1,-5,-5v-8a5,5,0,0,1,5,-5z" stroke-width="3"></path><g id="node_text5" fill="black"><text id="kity_text_57" text-rendering="inherit" font-size="12" dy=".8em" y="268.58000004291534" x="256.5">métier</text></g></g><g id="minder_node6"><path id="kity_path_273" fill="rgba(0, 0, 0, .25)" stroke="none" d="M633.5,441h0a56,56,0,0,1,56,56v0a56,56,0,0,1,-56,56h0a56,56,0,0,1,-56,-56v0a56,56,0,0,1,56,-56z" display="none"></path><g id="node_expander5" style="cursor: pointer;"><path id="kity_path_68" fill="white" stroke="gray" d="M568.5,492.5A6,6,0,1,1,556.5,492.5A6,6,0,1,1,568.5,492.5"></path><path id="kity_path_69" fill="none" stroke="gray" d="M558,492.5L567,492.5"></path></g><path id="node_outline6" fill="rgb(246, 238, 242)" stroke="rgb(191, 115, 148)" d="M572.5,479.5h109a3,3,0,0,1,3,3v20a3,3,0,0,1,-3,3h-109a3,3,0,0,1,-3,-3v-20a3,3,0,0,1,3,-3z" stroke-width="1"></path><g id="node_text6" fill="black"><text id="kity_text_65" text-rendering="inherit" font-size="14" dy=".8em" y="483.25999999046326" x="589.5">conception</text></g></g><g id="minder_node7"><path id="kity_path_278" fill="rgba(0, 0, 0, .25)" stroke="none" d="M740.5,16h0a45,45,0,0,1,45,45v0a45,45,0,0,1,-45,45h0a45,45,0,0,1,-45,-45v0a45,45,0,0,1,45,-45z" display="none"></path><g id="node_expander6" style="cursor: pointer;"><path id="kity_path_76" fill="white" stroke="gray" d="M692.5,55.5A6,6,0,1,1,680.5,55.5A6,6,0,1,1,692.5,55.5"></path><path id="kity_path_77" fill="none" stroke="gray" d="M682,55.5L691,55.5"></path></g><path id="node_outline7" fill="none" stroke="none" d="M697.5,46.5h72a5,5,0,0,1,5,5v8a5,5,0,0,1,-5,5h-72a5,5,0,0,1,-5,-5v-8a5,5,0,0,1,5,-5z" stroke-width="3"></path><g id="node_text7" fill="black"><text id="kity_text_73" text-rendering="inherit" font-size="12" dy=".8em" y="47.580000042915344" x="697.5">stack techno</text></g></g><g id="minder_node8" opacity="1"><path id="kity_path_276" fill="rgba(0, 0, 0, .25)" stroke="none" d="M833.5,-6h0a41,41,0,0,1,41,41v0a41,41,0,0,1,-41,41h0a41,41,0,0,1,-41,-41v0a41,41,0,0,1,41,-41z" display="none"></path><g id="node_expander7" style="cursor: pointer;" display="none"><path id="kity_path_84" fill="white" stroke="gray" d="M790.5,29.5A6,6,0,1,1,778.5,29.5A6,6,0,1,1,790.5,29.5"></path><path id="kity_path_85" fill="none" stroke="gray"></path></g><path id="node_outline8" fill="none" stroke="none" d="M795.5,20.5h63a5,5,0,0,1,5,5v8a5,5,0,0,1,-5,5h-63a5,5,0,0,1,-5,-5v-8a5,5,0,0,1,5,-5z" stroke-width="3"></path><g id="node_text8" fill="black"><text id="kity_text_81" text-rendering="inherit" font-size="12" dy=".8em" y="21.580000042915344" x="795.5">data&#xa0; -- DB</text></g></g><g id="minder_node9" opacity="1"><path id="kity_path_279" fill="rgba(0, 0, 0, .25)" stroke="none" d="M723,85h0a28,28,0,0,1,28,28v0a28,28,0,0,1,-28,28h0a28,28,0,0,1,-28,-28v0a28,28,0,0,1,28,-28z" display="none"></path><g id="node_expander8" style="cursor: pointer;" display="none"><path id="kity_path_92" fill="white" stroke="gray" d="M693.5,107.5A6,6,0,1,1,681.5,107.5A6,6,0,1,1,693.5,107.5"></path><path id="kity_path_93" fill="none" stroke="gray"></path></g><path id="node_outline9" fill="none" stroke="none" d="M698.5,98.5h38a5,5,0,0,1,5,5v8a5,5,0,0,1,-5,5h-38a5,5,0,0,1,-5,-5v-8a5,5,0,0,1,5,-5z" stroke-width="3"></path><g id="node_text9" fill="black"><text id="kity_text_89" text-rendering="inherit" font-size="12" dy=".8em" y="99.58000004291534" x="698.5">réseau</text></g></g><g id="minder_node10" opacity="1"><path id="kity_path_287" fill="rgba(0, 0, 0, .25)" stroke="none" d="M861,244h0a33,33,0,0,1,33,33v0a33,33,0,0,1,-33,33h0a33,33,0,0,1,-33,-33v0a33,33,0,0,1,33,-33z" display="none"></path><g id="node_expander9" style="cursor: pointer;" display="none"><path id="kity_path_100" fill="white" stroke="gray" d="M826.5,271.5A6,6,0,1,1,814.5,271.5A6,6,0,1,1,826.5,271.5"></path><path id="kity_path_101" fill="none" stroke="gray"></path></g><path id="node_outline10" fill="none" stroke="none" d="M831.5,262.5h47a5,5,0,0,1,5,5v8a5,5,0,0,1,-5,5h-47a5,5,0,0,1,-5,-5v-8a5,5,0,0,1,5,-5z" stroke-width="3"></path><g id="node_text10" fill="black"><text id="kity_text_97" text-rendering="inherit" font-size="12" dy=".8em" y="263.58000004291534" x="831.5">pérénité</text></g></g><g id="minder_node11"><path id="kity_path_277" fill="rgba(0, 0, 0, .25)" stroke="none" d="M856.5,-2h0a63,63,0,0,1,63,63v0a63,63,0,0,1,-63,63h0a63,63,0,0,1,-63,-63v0a63,63,0,0,1,63,-63z" display="none"></path><g id="node_expander10" style="cursor: pointer;" display="none"><path id="kity_path_108" fill="white" stroke="gray" d="M790.5,55.5A6,6,0,1,1,778.5,55.5A6,6,0,1,1,790.5,55.5"></path><path id="kity_path_109" fill="none" stroke="gray"></path></g><path id="node_outline11" fill="none" stroke="none" d="M795.5,46.5h105a5,5,0,0,1,5,5v8a5,5,0,0,1,-5,5h-105a5,5,0,0,1,-5,-5v-8a5,5,0,0,1,5,-5z" stroke-width="3"></path><g id="node_text11" fill="black"><text id="kity_text_105" text-rendering="inherit" font-size="12" dy=".8em" y="47.580000042915344" x="795.5">code -- langage(s)</text></g></g><g id="minder_node13" opacity="1"><path id="kity_path_288" fill="rgba(0, 0, 0, .25)" stroke="none" d="M880,252h0a51,51,0,0,1,51,51v0a51,51,0,0,1,-51,51h0a51,51,0,0,1,-51,-51v0a51,51,0,0,1,51,-51z" display="none"></path><g id="node_expander12" style="cursor: pointer;" display="none"><path id="kity_path_124" fill="white" stroke="gray" d="M826.5,297.5A6,6,0,1,1,814.5,297.5A6,6,0,1,1,826.5,297.5"></path><path id="kity_path_125" fill="none" stroke="gray"></path></g><path id="node_outline13" fill="none" stroke="none" d="M831.5,288.5h82a5,5,0,0,1,5,5v8a5,5,0,0,1,-5,5h-82a5,5,0,0,1,-5,-5v-8a5,5,0,0,1,5,-5z" stroke-width="3"></path><g id="node_text13" fill="black"><text id="kity_text_121" text-rendering="inherit" font-size="12" dy=".8em" y="289.58000004291534" x="831.5">maintenabilité</text></g></g><g id="minder_node14" opacity="1"><path id="kity_path_286" fill="rgba(0, 0, 0, .25)" stroke="none" d="M854.5,561h0a28,28,0,0,1,28,28v0a28,28,0,0,1,-28,28h0a28,28,0,0,1,-28,-28v0a28,28,0,0,1,28,-28z" display="none"></path><g id="node_expander13" style="cursor: pointer;" display="none"><path id="kity_path_132" fill="white" stroke="gray" d="M825.5,583.5A6,6,0,1,1,813.5,583.5A6,6,0,1,1,825.5,583.5"></path><path id="kity_path_133" fill="none" stroke="gray"></path></g><path id="node_outline14" fill="none" stroke="none" d="M830.5,574.5h37a5,5,0,0,1,5,5v8a5,5,0,0,1,-5,5h-37a5,5,0,0,1,-5,-5v-8a5,5,0,0,1,5,-5z" stroke-width="3"></path><g id="node_text14" fill="black"><text id="kity_text_129" text-rendering="inherit" font-size="12" dy=".8em" y="575.5800000429153" x="830.5">"agile"</text></g></g><g id="minder_node15"><path id="kity_path_289" fill="rgba(0, 0, 0, .25)" stroke="none" d="M733,350h0a31,31,0,0,1,31,31v0a31,31,0,0,1,-31,31h0a31,31,0,0,1,-31,-31v0a31,31,0,0,1,31,-31z" display="none"></path><g id="node_expander14" style="cursor: pointer;"><path id="kity_path_140" fill="white" stroke="gray" d="M700.5,375.5A6,6,0,1,1,688.5,375.5A6,6,0,1,1,700.5,375.5"></path><path id="kity_path_141" fill="none" stroke="gray" d="M690,375.5L699,375.5"></path></g><path id="node_outline15" fill="none" stroke="none" d="M705.5,366.5h100a5,5,0,0,1,5,5v8a5,5,0,0,1,-5,5h-100a5,5,0,0,1,-5,-5v-8a5,5,0,0,1,5,-5z" stroke-width="3"></path><g id="node_text15" fill="black"><text id="kity_text_137" text-rendering="inherit" font-size="12" dy=".8em" y="367.58000004291534" x="705.5">bonnes pratiques</text></g></g><g id="minder_node18" opacity="1"><path id="kity_path_290" fill="rgba(0, 0, 0, .25)" stroke="none" d="M869.5,340h0a41,41,0,0,1,41,41v0a41,41,0,0,1,-41,41h0a41,41,0,0,1,-41,-41v0a41,41,0,0,1,41,-41z" display="none"></path><g id="node_expander17" style="cursor: pointer;" display="none"><path id="kity_path_164" fill="white" stroke="gray" d="M826.5,375.5A6,6,0,1,1,814.5,375.5A6,6,0,1,1,826.5,375.5"></path><path id="kity_path_165" fill="none" stroke="gray"></path></g><path id="node_outline18" fill="none" stroke="none" d="M831.5,366.5h63a5,5,0,0,1,5,5v8a5,5,0,0,1,-5,5h-63a5,5,0,0,1,-5,-5v-8a5,5,0,0,1,5,-5z" stroke-width="3"></path><g id="node_text18" fill="black"><text id="kity_text_161" text-rendering="inherit" font-size="12" dy=".8em" y="367.58000004291534" x="831.5">ergonomie</text></g></g><g id="minder_node19" opacity="1"><path id="kity_path_291" fill="rgba(0, 0, 0, .25)" stroke="none" d="M872.5,363h0a44,44,0,0,1,44,44v0a44,44,0,0,1,-44,44h0a44,44,0,0,1,-44,-44v0a44,44,0,0,1,44,-44z" display="none"></path><g id="node_expander18" style="cursor: pointer;" display="none"><path id="kity_path_172" fill="white" stroke="gray" d="M826.5,401.5A6,6,0,1,1,814.5,401.5A6,6,0,1,1,826.5,401.5"></path><path id="kity_path_173" fill="none" stroke="gray"></path></g><path id="node_outline19" fill="none" stroke="none" d="M831.5,392.5h68a5,5,0,0,1,5,5v8a5,5,0,0,1,-5,5h-68a5,5,0,0,1,-5,-5v-8a5,5,0,0,1,5,-5z" stroke-width="3"></path><g id="node_text19" fill="black"><text id="kity_text_169" text-rendering="inherit" font-size="12" dy=".8em" y="393.58000004291534" x="831.5">accessibilité</text></g></g><g id="minder_node20" opacity="1"><path id="kity_path_292" fill="rgba(0, 0, 0, .25)" stroke="none" d="M884,378h0a55,55,0,0,1,55,55v0a55,55,0,0,1,-55,55h0a55,55,0,0,1,-55,-55v0a55,55,0,0,1,55,-55z" display="none"></path><g id="node_expander19" style="cursor: pointer;" display="none"><path id="kity_path_180" fill="white" stroke="gray" d="M826.5,427.5A6,6,0,1,1,814.5,427.5A6,6,0,1,1,826.5,427.5"></path><path id="kity_path_181" fill="none" stroke="gray"></path></g><path id="node_outline20" fill="none" stroke="none" d="M831.5,418.5h90a5,5,0,0,1,5,5v8a5,5,0,0,1,-5,5h-90a5,5,0,0,1,-5,-5v-8a5,5,0,0,1,5,-5z" stroke-width="3"></path><g id="node_text20" fill="black"><text id="kity_text_177" text-rendering="inherit" font-size="12" dy=".8em" y="419.58000004291534" x="831.5">éco-conception</text></g></g><g id="minder_node21" opacity="1"><path id="kity_path_293" fill="rgba(0, 0, 0, .25)" stroke="none" d="M909,380h0a79,79,0,0,1,79,79v0a79,79,0,0,1,-79,79h0a79,79,0,0,1,-79,-79v0a79,79,0,0,1,79,-79z" display="none"></path><g id="node_expander20" style="cursor: pointer;" display="none"><path id="kity_path_188" fill="white" stroke="gray" d="M826.5,453.5A6,6,0,1,1,814.5,453.5A6,6,0,1,1,826.5,453.5"></path><path id="kity_path_189" fill="none" stroke="gray"></path></g><path id="node_outline21" fill="none" stroke="none" d="M831.5,444.5h135a5,5,0,0,1,5,5v8a5,5,0,0,1,-5,5h-135a5,5,0,0,1,-5,-5v-8a5,5,0,0,1,5,-5z" stroke-width="3"></path><g id="node_text21" fill="black"><text id="kity_text_185" text-rendering="inherit" font-size="12" dy=".8em" y="445.58000004291534" x="831.5">numérique responsable</text></g></g><g id="minder_node27" opacity="1"><path id="kity_path_274" fill="rgba(0, 0, 0, .25)" stroke="none" d="M275,98h0a53,53,0,0,1,53,53v0a53,53,0,0,1,-53,53h0a53,53,0,0,1,-53,-53v0a53,53,0,0,1,53,-53z" display="none"></path><g id="node_expander26" style="cursor: pointer;"><path id="kity_path_236" fill="white" stroke="gray" d="M310.5,146.5A6,6,0,1,1,298.5,146.5A6,6,0,1,1,310.5,146.5"></path><path id="kity_path_237" fill="none" stroke="gray" d="M300,146.5L309,146.5"></path></g><path id="node_outline27" fill="none" stroke="none" d="M233.5,137.5h60a5,5,0,0,1,5,5v8a5,5,0,0,1,-5,5h-60a5,5,0,0,1,-5,-5v-8a5,5,0,0,1,5,-5z" stroke-width="3"></path><g id="node_text27" fill="black"><text id="kity_text_233" text-rendering="inherit" font-size="12" dy=".8em" y="138.58000004291534" x="233.5">ressources</text></g></g><g id="minder_node33"><g id="node_expander32" style="cursor: pointer;"><path id="kity_path_312" fill="white" stroke="gray" d="M442.5,237.5A6,6,0,1,1,430.5,237.5A6,6,0,1,1,442.5,237.5"></path><path id="kity_path_313" fill="none" stroke="gray" d="M432,237.5L441,237.5"></path></g><path id="node_outline33" fill="rgb(246, 238, 242)" stroke="rgb(191, 115, 148)" d="M317.5,224.5h109a3,3,0,0,1,3,3v20a3,3,0,0,1,-3,3h-109a3,3,0,0,1,-3,-3v-20a3,3,0,0,1,3,-3z" stroke-width="1"></path><g id="node_text33" fill="black"><text id="kity_text_309" text-rendering="inherit" font-size="14" dy=".8em" y="228.25999999046326" x="334.5">contraintes</text></g></g><g id="minder_node28"><path id="kity_path_294" fill="rgba(0, 0, 0, .25)" stroke="none" d="M185.5,37h0a37,37,0,0,1,37,37v0a37,37,0,0,1,-37,37h0a37,37,0,0,1,-37,-37v0a37,37,0,0,1,37,-37z" display="none"></path><g id="node_expander27" style="cursor: pointer;" display="none"><path id="kity_path_244" fill="white" stroke="gray" d="M224.5,68.5A6,6,0,1,1,212.5,68.5A6,6,0,1,1,224.5,68.5"></path><path id="kity_path_245" fill="none" stroke="gray"></path></g><path id="node_outline28" fill="none" stroke="none" d="M151.5,59.5h56a5,5,0,0,1,5,5v8a5,5,0,0,1,-5,5h-56a5,5,0,0,1,-5,-5v-8a5,5,0,0,1,5,-5z" stroke-width="3"></path><g id="node_text28" fill="black"><text id="kity_text_241" text-rendering="inherit" font-size="12" dy=".8em" y="60.580000042915344" x="151.5">humaines</text></g></g><g id="minder_node29"><path id="kity_path_295" fill="rgba(0, 0, 0, .25)" stroke="none" d="M177,53h0a47,47,0,0,1,47,47v0a47,47,0,0,1,-47,47h0a47,47,0,0,1,-47,-47v0a47,47,0,0,1,47,-47z" display="none"></path><g id="node_expander28" style="cursor: pointer;" display="none"><path id="kity_path_252" fill="white" stroke="gray" d="M224.5,94.5A6,6,0,1,1,212.5,94.5A6,6,0,1,1,224.5,94.5"></path><path id="kity_path_253" fill="none" stroke="gray"></path></g><path id="node_outline29" fill="none" stroke="none" d="M132.5,85.5h75a5,5,0,0,1,5,5v8a5,5,0,0,1,-5,5h-75a5,5,0,0,1,-5,-5v-8a5,5,0,0,1,5,-5z" stroke-width="3"></path><g id="node_text29" fill="black"><text id="kity_text_249" text-rendering="inherit" font-size="12" dy=".8em" y="86.58000004291534" x="132.5">énergétiques</text></g></g><g id="minder_node30"><path id="kity_path_296" fill="rgba(0, 0, 0, .25)" stroke="none" d="M185.5,88h0a38,38,0,0,1,38,38v0a38,38,0,0,1,-38,38h0a38,38,0,0,1,-38,-38v0a38,38,0,0,1,38,-38z" display="none"></path><g id="node_expander29" style="cursor: pointer;" display="none"><path id="kity_path_260" fill="white" stroke="gray" d="M224.5,120.5A6,6,0,1,1,212.5,120.5A6,6,0,1,1,224.5,120.5"></path><path id="kity_path_261" fill="none" stroke="gray"></path></g><path id="node_outline30" fill="none" stroke="none" d="M150.5,111.5h57a5,5,0,0,1,5,5v8a5,5,0,0,1,-5,5h-57a5,5,0,0,1,-5,-5v-8a5,5,0,0,1,5,-5z" stroke-width="3"></path><g id="node_text30" fill="black"><text id="kity_text_257" text-rendering="inherit" font-size="12" dy=".8em" y="112.58000004291534" x="150.5">matériaux</text></g></g><g id="minder_node31"><path id="kity_path_297" fill="rgba(0, 0, 0, .25)" stroke="none" d="M167,93h0a59,59,0,0,1,59,59v0a59,59,0,0,1,-59,59h0a59,59,0,0,1,-59,-59v0a59,59,0,0,1,59,-59z" display="none"></path><g id="node_expander30" style="cursor: pointer;" display="none"><path id="kity_path_268" fill="white" stroke="gray" d="M224.5,146.5A6,6,0,1,1,212.5,146.5A6,6,0,1,1,224.5,146.5"></path><path id="kity_path_269" fill="none" stroke="gray"></path></g><path id="node_outline31" fill="none" stroke="none" d="M110.5,137.5h97a5,5,0,0,1,5,5v8a5,5,0,0,1,-5,5h-97a5,5,0,0,1,-5,-5v-8a5,5,0,0,1,5,-5z"></path><g id="node_text31" fill="black"><text id="kity_text_265" text-rendering="inherit" font-size="12" dy=".8em" y="138.58000004291534" x="110.5">naturelles (eau...)</text></g></g><g id="minder_node32"><g id="node_expander31" style="cursor: pointer;" display="none"><path id="kity_path_304" fill="white" stroke="gray" d="M224.5,172.5A6,6,0,1,1,212.5,172.5A6,6,0,1,1,224.5,172.5"></path><path id="kity_path_305" fill="none" stroke="gray"></path></g><path id="node_outline32" fill="none" stroke="none" d="M150.5,163.5h57a5,5,0,0,1,5,5v8a5,5,0,0,1,-5,5h-57a5,5,0,0,1,-5,-5v-8a5,5,0,0,1,5,-5z" stroke-width="3"></path><g id="node_text32" fill="black"><text id="kity_text_301" text-rendering="inherit" font-size="12" dy=".8em" y="164.58000004291534" x="150.5">logistique</text></g></g><g id="minder_node16"><path id="kity_path_284" fill="rgba(0, 0, 0, .25)" stroke="none" d="M140.5,139h0a117,117,0,0,1,117,117v0a117,117,0,0,1,-117,117h0a117,117,0,0,1,-117,-117v0a117,117,0,0,1,117,-117z" display="none"></path><g id="node_expander15" style="cursor: pointer;" display="none"><path id="kity_path_148" fill="white" stroke="gray" d="M247.5,250.5A6,6,0,1,1,235.5,250.5A6,6,0,1,1,247.5,250.5"></path><path id="kity_path_149" fill="none" stroke="gray"></path></g><path id="node_outline16" fill="none" stroke="none" d="M25.5,241.5h205a5,5,0,0,1,5,5v8a5,5,0,0,1,-5,5h-205a5,5,0,0,1,-5,-5v-8a5,5,0,0,1,5,-5z" stroke-width="3"></path><g id="node_text16" fill="black"><text id="kity_text_145" text-rendering="inherit" font-size="12" dy=".8em" y="242.58000004291534" x="25.5">attentes client -- cahier des charges</text></g></g><g id="minder_node17"><path id="kity_path_285" fill="rgba(0, 0, 0, .25)" stroke="none" d="M204.5,240h0a42,42,0,0,1,42,42v0a42,42,0,0,1,-42,42h0a42,42,0,0,1,-42,-42v0a42,42,0,0,1,42,-42z" display="none"></path><g id="node_expander16" style="cursor: pointer;" display="none"><path id="kity_path_156" fill="white" stroke="gray" d="M247.5,276.5A6,6,0,1,1,235.5,276.5A6,6,0,1,1,247.5,276.5"></path><path id="kity_path_157" fill="none" stroke="gray"></path></g><path id="node_outline17" fill="none" stroke="none" d="M165.5,267.5h65a5,5,0,0,1,5,5v8a5,5,0,0,1,-5,5h-65a5,5,0,0,1,-5,-5v-8a5,5,0,0,1,5,-5z" stroke-width="3"></path><g id="node_text17" fill="black"><text id="kity_text_153" text-rendering="inherit" font-size="12" dy=".8em" y="268.58000004291534" x="165.5">compromis</text></g></g><g id="minder_node22" opacity="1"><path id="kity_path_283" fill="rgba(0, 0, 0, .25)" stroke="none" d="M763,477h0a60,60,0,0,1,60,60v0a60,60,0,0,1,-60,60h0a60,60,0,0,1,-60,-60v0a60,60,0,0,1,60,-60z" display="none"></path><g id="node_expander21" style="cursor: pointer;"><path id="kity_path_196" fill="white" stroke="gray" d="M700.5,531.5A6,6,0,1,1,688.5,531.5A6,6,0,1,1,700.5,531.5"></path><path id="kity_path_197" fill="none" stroke="gray" d="M690,531.5L699,531.5"></path></g><path id="node_outline22" fill="none" stroke="none" d="M705.5,522.5h99a5,5,0,0,1,5,5v8a5,5,0,0,1,-5,5h-99a5,5,0,0,1,-5,-5v-8a5,5,0,0,1,5,-5z" stroke-width="3"></path><g id="node_text22" fill="black"><text id="kity_text_193" text-rendering="inherit" font-size="12" dy=".8em" y="523.5800000429153" x="705.5">équipe -- groupe</text></g></g><g id="minder_node23"><path id="kity_path_280" fill="rgba(0, 0, 0, .25)" stroke="none" d="M875.5,464h0a47,47,0,0,1,47,47v0a47,47,0,0,1,-47,47h0a47,47,0,0,1,-47,-47v0a47,47,0,0,1,47,-47z" display="none"></path><g id="node_expander22" style="cursor: pointer;" display="none"><path id="kity_path_204" fill="white" stroke="gray" d="M825.5,505.5A6,6,0,1,1,813.5,505.5A6,6,0,1,1,825.5,505.5"></path><path id="kity_path_205" fill="none" stroke="gray"></path></g><path id="node_outline23" fill="none" stroke="none" d="M830.5,496.5h76a5,5,0,0,1,5,5v8a5,5,0,0,1,-5,5h-76a5,5,0,0,1,-5,-5v-8a5,5,0,0,1,5,-5z" stroke-width="3"></path><g id="node_text23" fill="black"><text id="kity_text_201" text-rendering="inherit" font-size="12" dy=".8em" y="497.58000004291534" x="830.5">collaboration</text></g></g><g id="minder_node24"><path id="kity_path_281" fill="rgba(0, 0, 0, .25)" stroke="none" d="M902,464h0a73,73,0,0,1,73,73v0a73,73,0,0,1,-73,73h0a73,73,0,0,1,-73,-73v0a73,73,0,0,1,73,-73z" display="none"></path><g id="node_expander23" style="cursor: pointer;" display="none"><path id="kity_path_212" fill="white" stroke="gray" d="M825.5,531.5A6,6,0,1,1,813.5,531.5A6,6,0,1,1,825.5,531.5"></path><path id="kity_path_213" fill="none" stroke="gray" d="M815,531.5L824,531.5"></path></g><path id="node_outline24" fill="none" stroke="none" d="M830.5,522.5h124a5,5,0,0,1,5,5v8a5,5,0,0,1,-5,5h-124a5,5,0,0,1,-5,-5v-8a5,5,0,0,1,5,-5z" stroke-width="3"></path><g id="node_text24" fill="black"><text id="kity_text_209" text-rendering="inherit" font-size="12" dy=".8em" y="523.5800000429153" x="830.5">séparation des tâches</text></g></g><g id="minder_node26"><path id="kity_path_282" fill="rgba(0, 0, 0, .25)" stroke="none" d="M875.5,516h0a47,47,0,0,1,47,47v0a47,47,0,0,1,-47,47h0a47,47,0,0,1,-47,-47v0a47,47,0,0,1,47,-47z" display="none"></path><g id="node_expander25" style="cursor: pointer;" display="none"><path id="kity_path_228" fill="white" stroke="gray" d="M825.5,557.5A6,6,0,1,1,813.5,557.5A6,6,0,1,1,825.5,557.5"></path><path id="kity_path_229" fill="none" stroke="gray"></path></g><path id="node_outline26" fill="none" stroke="none" d="M830.5,548.5h76a5,5,0,0,1,5,5v8a5,5,0,0,1,-5,5h-76a5,5,0,0,1,-5,-5v-8a5,5,0,0,1,5,-5z" stroke-width="3"></path><g id="node_text26" fill="black"><text id="kity_text_225" text-rendering="inherit" font-size="12" dy=".8em" y="549.5800000429153" x="830.5">transversalité</text></g></g><g id="minder_node34" opacity="1"><g id="node_expander33" style="cursor: pointer;"><path id="kity_path_343" fill="white" stroke="gray" d="M442.5,401.5A6,6,0,1,1,430.5,401.5A6,6,0,1,1,442.5,401.5"></path><path id="kity_path_344" fill="none" stroke="gray" d="M432,401.5L441,401.5"></path></g><path id="node_outline34" fill="rgb(246, 238, 242)" stroke="rgb(191, 115, 148)" d="M341.5,388.5h85a3,3,0,0,1,3,3v20a3,3,0,0,1,-3,3h-85a3,3,0,0,1,-3,-3v-20a3,3,0,0,1,3,-3z" stroke-width="1"></path><g id="node_text34" fill="black"><text id="kity_text_340" text-rendering="inherit" font-size="14" dy=".8em" y="392.25999999046326" x="358.5">sociétal</text></g></g><g id="minder_node35"><g id="node_expander34" style="cursor: pointer;" display="none"><path id="kity_path_352" fill="white" stroke="gray" d="M334.5,388.5A6,6,0,1,1,322.5,388.5A6,6,0,1,1,334.5,388.5"></path><path id="kity_path_353" fill="none" stroke="gray"></path></g><path id="node_outline35" fill="none" stroke="none" d="M290.5,379.5h27a5,5,0,0,1,5,5v8a5,5,0,0,1,-5,5h-27a5,5,0,0,1,-5,-5v-8a5,5,0,0,1,5,-5z" stroke-width="3"></path><g id="node_text35" fill="black"><text id="kity_text_349" text-rendering="inherit" font-size="12" dy=".8em" y="380.58000004291534" x="290.5">droit</text></g></g><g id="minder_node36"><g id="node_expander35" style="cursor: pointer;" display="none"><path id="kity_path_360" fill="white" stroke="gray" d="M334.5,414.5A6,6,0,1,1,322.5,414.5A6,6,0,1,1,334.5,414.5"></path><path id="kity_path_361" fill="none" stroke="gray"></path></g><path id="node_outline36" fill="none" stroke="none" d="M259.5,405.5h58a5,5,0,0,1,5,5v8a5,5,0,0,1,-5,5h-58a5,5,0,0,1,-5,-5v-8a5,5,0,0,1,5,-5z" stroke-width="3"></path><g id="node_text36" fill="black"><text id="kity_text_357" text-rendering="inherit" font-size="12" dy=".8em" y="406.58000004291534" x="259.5">entreprise</text></g></g><g id="minder_node37" opacity="1"><g id="node_expander36" style="cursor: pointer;" display="none"><path id="kity_path_368" fill="white" stroke="gray" d="M826.5,323.5A6,6,0,1,1,814.5,323.5A6,6,0,1,1,826.5,323.5"></path><path id="kity_path_369" fill="none" stroke="gray"></path></g><path id="node_outline37" fill="none" stroke="none" d="M831.5,314.5h74a5,5,0,0,1,5,5v8a5,5,0,0,1,-5,5h-74a5,5,0,0,1,-5,-5v-8a5,5,0,0,1,5,-5z" stroke-width="3"></path><g id="node_text37" fill="black"><text id="kity_text_365" text-rendering="inherit" font-size="12" dy=".8em" y="315.58000004291534" x="831.5">performance</text></g></g><g id="minder_node38" opacity="1"><g id="node_expander37" style="cursor: pointer;" display="none"><path id="kity_path_376" fill="white" stroke="gray" d="M310.5,328.5A6,6,0,1,1,298.5,328.5A6,6,0,1,1,310.5,328.5"></path><path id="kity_path_377" fill="none" stroke="gray" d="M300,328.5L309,328.5"></path></g><path id="node_outline38" fill="none" stroke="none" d="M227.5,319.5h66a5,5,0,0,1,5,5v8a5,5,0,0,1,-5,5h-66a5,5,0,0,1,-5,-5v-8a5,5,0,0,1,5,-5z" stroke-width="3"></path><g id="node_text38" fill="black"><text id="kity_text_373" text-rendering="inherit" font-size="12" dy=".8em" y="320.58000004291534" x="227.5">cycle de vie</text></g></g><g id="minder_node39"><g id="node_expander38" style="cursor: pointer;"><path id="kity_path_384" fill="white" stroke="gray" d="M700.5,609.5A6,6,0,1,1,688.5,609.5A6,6,0,1,1,700.5,609.5"></path><path id="kity_path_385" fill="none" stroke="gray" d="M690,609.5L699,609.5"></path></g><path id="node_outline39" fill="none" stroke="none" d="M705.5,600.5h99a5,5,0,0,1,5,5v8a5,5,0,0,1,-5,5h-99a5,5,0,0,1,-5,-5v-8a5,5,0,0,1,5,-5z" stroke-width="3"></path><g id="node_text39" fill="black"><text id="kity_text_381" text-rendering="inherit" font-size="12" dy=".8em" y="601.5800000429153" x="705.5">gestion de projet</text></g></g><g id="minder_node40"><g id="node_expander39" style="cursor: pointer;" display="none"><path id="kity_path_392" fill="white" stroke="gray" d="M247.5,302.5A6,6,0,1,1,235.5,302.5A6,6,0,1,1,247.5,302.5"></path><path id="kity_path_393" fill="none" stroke="gray"></path></g><path id="node_outline40" fill="none" stroke="none" d="M96.5,293.5h134a5,5,0,0,1,5,5v8a5,5,0,0,1,-5,5h-134a5,5,0,0,1,-5,-5v-8a5,5,0,0,1,5,-5z" stroke-width="3"></path><g id="node_text40" fill="black"><text id="kity_text_389" text-rendering="inherit" font-size="12" dy=".8em" y="294.58000004291534" x="96.5">dialogue -- vocabulaire</text></g></g><g id="minder_node41"><g id="node_expander40" style="cursor: pointer;" display="none"><path id="kity_path_400" fill="white" stroke="gray" d="M790.5,81.5A6,6,0,1,1,778.5,81.5A6,6,0,1,1,790.5,81.5"></path><path id="kity_path_401" fill="none" stroke="gray"></path></g><path id="node_outline41" fill="none" stroke="none" d="M795.5,72.5h27a5,5,0,0,1,5,5v8a5,5,0,0,1,-5,5h-27a5,5,0,0,1,-5,-5v-8a5,5,0,0,1,5,-5z" stroke-width="3"></path><g id="node_text41" fill="black"><text id="kity_text_397" text-rendering="inherit" font-size="12" dy=".8em" y="73.58000004291534" x="795.5">tests</text></g></g><g id="minder_node42"><g id="node_expander41" style="cursor: pointer;" display="none"><path id="kity_path_408" fill="white" stroke="gray" d="M826.5,349.5A6,6,0,1,1,814.5,349.5A6,6,0,1,1,826.5,349.5"></path><path id="kity_path_409" fill="none" stroke="gray"></path></g><path id="node_outline42" fill="none" stroke="none" d="M831.5,340.5h75a5,5,0,0,1,5,5v8a5,5,0,0,1,-5,5h-75a5,5,0,0,1,-5,-5v-8a5,5,0,0,1,5,-5z" stroke-width="3"></path><g id="node_text42" fill="black"><text id="kity_text_405" text-rendering="inherit" font-size="12" dy=".8em" y="341.58000004291534" x="831.5">compatibilité</text></g></g><g id="minder_node43"><g id="node_expander42" style="cursor: pointer;" display="none"><path id="kity_path_416" fill="white" stroke="gray" d="M334.5,440.5A6,6,0,1,1,322.5,440.5A6,6,0,1,1,334.5,440.5"></path><path id="kity_path_417" fill="none" stroke="gray"></path></g><path id="node_outline43" fill="none" stroke="none" d="M273.5,431.5h44a5,5,0,0,1,5,5v8a5,5,0,0,1,-5,5h-44a5,5,0,0,1,-5,-5v-8a5,5,0,0,1,5,-5z" stroke-width="3"></path><g id="node_text43" fill="black"><text id="kity_text_413" text-rendering="inherit" font-size="12" dy=".8em" y="432.58000004291534" x="273.5">éthique</text></g><g id="kity_g_418" display="none"><g id="kity_g_419"><path id="kity_path_420" fill="rgb(255, 244, 179)" stroke="none" d="M322.5,427.57999992370605h39v24h-39z"></path><text id="kity_text_421" text-rendering="geometricPrecision" font-size="12" dy="4.800000190734863" x="330.5" fill="rgb(77, 65, 0)" y="439.5">bob</text></g></g></g><g id="minder_node44"><g id="node_expander43" style="cursor: pointer;" display="none"><path id="kity_path_428" fill="white" stroke="gray" d="M692.5,133.5A6,6,0,1,1,680.5,133.5A6,6,0,1,1,692.5,133.5"></path><path id="kity_path_429" fill="none" stroke="gray"></path></g><path id="node_outline44" fill="none" stroke="none" d="M697.5,124.5h45a5,5,0,0,1,5,5v8a5,5,0,0,1,-5,5h-45a5,5,0,0,1,-5,-5v-8a5,5,0,0,1,5,-5z" stroke-width="3"></path><g id="node_text44" fill="black"><text id="kity_text_425" text-rendering="inherit" font-size="12" dy=".8em" y="125.58000004291534" x="697.5">sécurité</text></g></g><g id="minder_node45"><g id="node_expander44" style="cursor: pointer;" display="none"><path id="kity_path_436" fill="white" stroke="gray" d="M224.5,198.5A6,6,0,1,1,212.5,198.5A6,6,0,1,1,224.5,198.5"></path><path id="kity_path_437" fill="none" stroke="gray"></path></g><path id="node_outline45" fill="none" stroke="none" d="M171.5,189.5h36a5,5,0,0,1,5,5v8a5,5,0,0,1,-5,5h-36a5,5,0,0,1,-5,-5v-8a5,5,0,0,1,5,-5z" stroke-width="3"></path><g id="node_text45" fill="black"><text id="kity_text_433" text-rendering="inherit" font-size="12" dy=".8em" y="190.58000004291534" x="171.5">temps</text></g></g><g id="minder_node46"><g id="node_expander45" style="cursor: pointer;" display="none"><path id="kity_path_444" fill="white" stroke="gray" d="M826.5,479.5A6,6,0,1,1,814.5,479.5A6,6,0,1,1,826.5,479.5"></path><path id="kity_path_445" fill="none" stroke="gray"></path></g><path id="node_outline46" fill="none" stroke="none" d="M831.5,470.5h74a5,5,0,0,1,5,5v8a5,5,0,0,1,-5,5h-74a5,5,0,0,1,-5,-5v-8a5,5,0,0,1,5,-5z" stroke-width="3"></path><g id="node_text46" fill="black"><text id="kity_text_441" text-rendering="inherit" font-size="12" dy=".8em" y="471.58000004291534" x="831.5">transparence</text></g></g><g id="minder_node47"><g id="node_expander46" style="cursor: pointer;" display="none"><path id="kity_path_452" fill="white" stroke="gray" d="M224.5,224.5A6,6,0,1,1,212.5,224.5A6,6,0,1,1,224.5,224.5"></path><path id="kity_path_453" fill="none" stroke="gray"></path></g><path id="node_outline47" fill="none" stroke="none" d="M144.5,215.5h63a5,5,0,0,1,5,5v8a5,5,0,0,1,-5,5h-63a5,5,0,0,1,-5,-5v-8a5,5,0,0,1,5,-5z" stroke-width="3"></path><g id="node_text47" fill="black"><text id="kity_text_449" text-rendering="inherit" font-size="12" dy=".8em" y="216.58000004291534" x="144.5">budgétaire</text></g></g><g id="minder_node48" opacity="1"><g id="node_expander47" style="cursor: pointer;" display="none"><path id="kity_path_460" fill="white" stroke="gray" d="M825.5,609.5A6,6,0,1,1,813.5,609.5A6,6,0,1,1,825.5,609.5"></path><path id="kity_path_461" fill="none" stroke="gray"></path></g><path id="node_outline48" fill="none" stroke="none" d="M830.5,600.5h91a5,5,0,0,1,5,5v8a5,5,0,0,1,-5,5h-91a5,5,0,0,1,-5,-5v-8a5,5,0,0,1,5,-5z" stroke-width="3"></path><g id="node_text48" fill="black"><text id="kity_text_457" text-rendering="inherit" font-size="12" dy=".8em" y="601.5800000429153" x="830.5">dette technique</text></g></g><g id="minder_node49"><g id="node_expander48" style="cursor: pointer;" display="none"><path id="kity_path_468" fill="white" stroke="gray" d="M825.5,635.5A6,6,0,1,1,813.5,635.5A6,6,0,1,1,825.5,635.5"></path><path id="kity_path_469" fill="none" stroke="gray"></path></g><path id="node_outline49" fill="none" stroke="none" d="M830.5,626.5h47a5,5,0,0,1,5,5v8a5,5,0,0,1,-5,5h-47a5,5,0,0,1,-5,-5v-8a5,5,0,0,1,5,-5z" stroke-width="3"></path><g id="node_text49" fill="black"><text id="kity_text_465" text-rendering="inherit" font-size="12" dy=".8em" y="627.5800000429153" x="830.5">pilotage</text></g></g><g id="minder_node50"><g id="node_expander49" style="cursor: pointer;" display="none"><path id="kity_path_476" fill="white" stroke="gray" d="M692.5,159.5A6,6,0,1,1,680.5,159.5A6,6,0,1,1,692.5,159.5"></path><path id="kity_path_477" fill="none" stroke="gray"></path></g><path id="node_outline50" fill="none" stroke="none" d="M697.5,150.5h73a5,5,0,0,1,5,5v8a5,5,0,0,1,-5,5h-73a5,5,0,0,1,-5,-5v-8a5,5,0,0,1,5,-5z" stroke-width="3"></path><g id="node_text50" fill="black"><text id="kity_text_473" text-rendering="inherit" font-size="12" dy=".8em" y="151.58000004291534" x="697.5">déploiement</text></g></g><g id="minder_node51"><g id="node_expander50" style="cursor: pointer;" display="none"><path id="kity_path_484" fill="white" stroke="gray" d="M692.5,185.5A6,6,0,1,1,680.5,185.5A6,6,0,1,1,692.5,185.5"></path><path id="kity_path_485" fill="none" stroke="gray"></path></g><path id="node_outline51" fill="none" stroke="none" d="M697.5,176.5h74a5,5,0,0,1,5,5v8a5,5,0,0,1,-5,5h-74a5,5,0,0,1,-5,-5v-8a5,5,0,0,1,5,-5z" stroke-width="3"></path><g id="node_text51" fill="black"><text id="kity_text_481" text-rendering="inherit" font-size="12" dy=".8em" y="177.58000004291534" x="697.5">maintenance</text></g></g><g id="minder_node52" opacity="1"><g id="node_expander51" style="cursor: pointer;" display="none"><path id="kity_path_492" fill="white" stroke="gray" d="M692.5,211.5A6,6,0,1,1,680.5,211.5A6,6,0,1,1,692.5,211.5"></path><path id="kity_path_493" fill="none" stroke="gray"></path></g><path id="node_outline52" fill="none" stroke="none" d="M697.5,202.5h67a5,5,0,0,1,5,5v8a5,5,0,0,1,-5,5h-67a5,5,0,0,1,-5,-5v-8a5,5,0,0,1,5,-5z" stroke-width="3"></path><g id="node_text52" fill="black"><text id="kity_text_489" text-rendering="inherit" font-size="12" dy=".8em" y="203.58000004291534" x="697.5">versionning</text></g></g><g id="kity_g_12" display="none"><path id="kity_path_13" fill="none" stroke="rgb(112, 66, 86)" d="M572.5,143.5h101a3,3,0,0,1,3,3v20a3,3,0,0,1,-3,3h-101a3,3,0,0,1,-3,-3v-20a3,3,0,0,1,3,-3z" stroke-width="5"></path></g><g id="minder_node53"><g id="node_expander52" style="cursor: pointer;" display="none"><path id="kity_path_500" fill="white" stroke="gray" d="M692.5,237.5A6,6,0,1,1,680.5,237.5A6,6,0,1,1,692.5,237.5"></path><path id="kity_path_501" fill="none" stroke="gray"></path></g><path id="node_outline53" fill="none" stroke="none" d="M697.5,228.5h68a5,5,0,0,1,5,5v8a5,5,0,0,1,-5,5h-68a5,5,0,0,1,-5,-5v-8a5,5,0,0,1,5,-5z" stroke-width="3"></path><g id="node_text53" fill="black"><text id="kity_text_497" text-rendering="inherit" font-size="12" dy=".8em" y="229.58000004291534" x="697.5">architecture</text></g></g></g></g></svg>